<svg width="231" height="30" viewBox="0 0 231 30" fill="none" xmlns="http://www.w3.org/2000/svg">
<path d="M3.51817 0.0458984H1.02189L0.0965666 27.0623H0.0915397L0.0965666 27.0725L0 29.8229H2.27254H5.78562H7.70231L14.6013 26.8438V20.8344L5.96864 24.5407L6.15674 19.1312L14.7335 15.3996V9.39027L6.36521 13.0304L6.61432 5.78565H15.3995L15.9791 0.0458984H6.8126H3.51817Z" fill="#46B6E3"/>
<path d="M19.675 5.69917H31.2056L19.675 25.237L19.4971 29.8228H38.191L38.4148 24.0831H28.1297L38.8164 5.07384L39.0807 0H19.9852L19.675 5.69917Z" fill="#5B5C5E"/>
<path d="M53.9521 29.8228H59.7378L60.4953 7.65649H54.7046L53.9521 29.8228Z" fill="#46B6E3"/>
<path d="M54.8818 5.5213H60.6725L60.8505 0H55.0598L54.8818 5.5213Z" fill="#5B5C5E"/>
<path d="M76.5606 7.65649V7.67685L70.5513 10.2951L70.6427 7.65649H64.8571L64.0996 29.8228H69.8852L70.3326 16.6908L76.3318 14.0725L75.7624 29.8228H81.548L82.3513 7.65649H76.5606Z" fill="#46B6E3"/>
<path d="M92.8244 13.3964H103.938L104.162 7.65649H92.9871H90.0485H87.2015L86.7998 21.6325H89.7384H92.5854H98.3507L98.2796 24.0372H93.165H87.3794L87.2015 29.8228H87.3794H92.9871H98.1067H101.269H103.892L104.111 21.6325H104.116L104.294 15.8468H92.7532L92.8244 13.3964Z" fill="#46B6E3"/>
<path d="M120.695 21.7952L114.401 24.4998L114.976 7.65649H109.19L108.529 27.0215L108.433 27.0622L108.524 27.1791L108.433 29.8228H110.614H114.218H116.043L120.477 27.9061L120.405 29.8228H126.196L126.994 7.65649H121.209L120.695 21.7952Z" fill="#46B6E3"/>
<path d="M144.803 7.65649L137.156 10.9866L137.278 7.65649H131.493L130.689 29.8228H136.475L136.927 17.3923L146.582 13.1777L144.803 7.65649Z" fill="#46B6E3"/>
<path d="M155.734 23.6L156.085 13.31H161.408L161.235 21.2207L155.734 23.6ZM161.535 7.52441H150.498L149.74 29.6907H155.617L161.103 27.2961L161.052 29.6907H166.838L167.326 7.52441H161.535Z" fill="#46B6E3"/>
<path d="M184.464 7.65649L184.459 7.67685L178.45 10.2951L178.541 7.65649H172.756L171.998 29.8228H177.784L178.231 16.6908L184.23 14.0725L183.661 29.8228H189.446L190.25 7.65649H184.464Z" fill="#46B6E3"/>
<path d="M197.549 7.65649H195.053L194.352 27.0571L194.341 27.0622L194.352 27.0774L194.255 29.8228H196.568H200.041H201.957L208.856 26.8436V20.8342L200.224 24.5405L200.6 13.3964H209.431L210.01 7.65649H200.798H197.549Z" fill="#46B6E3"/>
<path d="M219.696 16.1468L219.787 13.4015H226.066L219.696 16.1468ZM230.535 7.65649H214.2L213.539 27.0622H213.534V27.0723L213.447 29.8278H221.15L230.052 25.9996L230.184 19.8987L219.416 24.5354L219.492 22.2527L230.23 17.672L230.352 13.3964H230.362L230.54 7.65649H230.535Z" fill="#46B6E3"/>
</svg>
